<?xml version="1.0" encoding="UTF-8"?>
<svg id="Layer_2" data-name="Layer 2" xmlns="http://www.w3.org/2000/svg" viewBox="0 0 1112 328.54">
  <defs>
    <style>
      .cls-1 {
        fill: #231f20;
        stroke-width: 0px;
      }
    </style>
  </defs>
  <g id="Layer_2-2" data-name="Layer 2">
    <g>
      <path class="cls-1" d="m85.5,325.93L0,97.22h49.91l65.97,188.36,65.53-188.36h50.34l-85.5,228.72h-60.76Z"/>
      <path class="cls-1" d="m356.31,328.54c-24.02,0-44.13-4.92-60.33-14.76-16.21-9.83-28.43-23.5-36.67-41.01-8.25-17.5-12.37-37.68-12.37-60.54s4.27-43.54,12.8-61.19c8.53-17.65,20.97-31.53,37.32-41.66,16.34-10.12,36.09-15.19,59.24-15.19,17.65,0,32.98,3.25,46,9.76,13.02,6.51,23.8,15.26,32.33,26.26,8.53,11,14.82,23.22,18.88,36.67,4.05,13.45,5.78,27.42,5.21,41.88,0,3.19-.15,6.22-.43,9.11-.29,2.9-.58,5.93-.87,9.11h-165.35c.87,11.58,3.83,22.13,8.9,31.68,5.06,9.55,12.22,17.14,21.48,22.78,9.26,5.64,20.68,8.46,34.29,8.46,7.52,0,14.82-.94,21.92-2.82,7.09-1.88,13.45-4.92,19.1-9.11,5.64-4.19,9.62-9.62,11.94-16.28h45.14c-3.76,15.34-10.49,27.99-20.18,37.98-9.7,9.98-21.42,17.29-35.15,21.92-13.75,4.62-28.14,6.94-43.18,6.94Zm-63.36-137.14h121.52c-.29-11.28-2.9-21.33-7.81-30.16-4.92-8.82-11.72-15.77-20.4-20.83-8.68-5.06-19.1-7.59-31.25-7.59-13.31,0-24.38,2.75-33.2,8.25-8.83,5.5-15.62,12.66-20.4,21.48-4.77,8.83-7.59,18.45-8.46,28.86Zm41.23-125.86L374.98,0h48.17l-49.48,65.53h-39.49Z"/>
      <path class="cls-1" d="m499.53,325.93V97.22h42.1l2.17,32.98c5.78-8.96,12.44-16.06,19.96-21.27,7.52-5.21,15.77-8.96,24.74-11.28,8.96-2.31,18.37-3.47,28.21-3.47h13.89v42.97h-13.89c-16.49,0-30.16,3.33-41.01,9.98-10.85,6.66-18.81,15.92-23.87,27.78-5.07,11.87-7.59,25.46-7.59,40.8v110.24h-44.7Z"/>
      <path class="cls-1" d="m681.37,66.84c-8.68,0-15.7-2.67-21.05-8.03-5.36-5.35-8.03-12.22-8.03-20.62s2.75-15.26,8.25-20.61c5.49-5.35,12.44-8.03,20.83-8.03,7.81,0,14.68,2.68,20.62,8.03,5.93,5.36,8.9,12.23,8.9,20.61s-2.82,15.26-8.46,20.62c-5.64,5.36-12.66,8.03-21.05,8.03Zm-22.13,259.1V97.22h44.7v228.72h-44.7Z"/>
      <path class="cls-1" d="m850.2,325.93c-17.94,0-32.55-2.53-43.83-7.59-11.28-5.06-19.61-13.09-24.96-24.09-5.36-10.99-8.03-25.31-8.03-42.97v-114.14h-36.02v-39.93h36.02V31.25h44.7v65.97h57.72v39.93h-57.72v108.5c0,13.6,2.46,23.8,7.38,30.6,4.92,6.8,15.19,10.2,30.81,10.2h17.79v39.49h-23.87Z"/>
      <path class="cls-1" d="m1009.47,328.54c-24.02,0-44.13-4.92-60.33-14.76-16.21-9.83-28.43-23.5-36.67-41.01-8.25-17.5-12.37-37.68-12.37-60.54s4.27-43.54,12.8-61.19c8.53-17.65,20.97-31.53,37.32-41.66,16.34-10.12,36.09-15.19,59.24-15.19,17.64,0,32.98,3.25,46,9.76,13.02,6.51,23.79,15.26,32.33,26.26,8.53,11,14.82,23.22,18.88,36.67,4.05,13.45,5.78,27.42,5.21,41.88,0,3.19-.15,6.22-.43,9.11-.29,2.9-.58,5.93-.87,9.11h-165.35c.87,11.58,3.83,22.13,8.9,31.68,5.06,9.55,12.22,17.14,21.48,22.78,9.26,5.64,20.68,8.46,34.29,8.46,7.52,0,14.82-.94,21.92-2.82,7.09-1.88,13.45-4.92,19.1-9.11,5.64-4.19,9.62-9.62,11.94-16.28h45.14c-3.76,15.34-10.49,27.99-20.18,37.98-9.7,9.98-21.42,17.29-35.15,21.92-13.75,4.62-28.14,6.94-43.18,6.94Zm-63.36-137.14h121.52c-.29-11.28-2.9-21.33-7.81-30.16-4.92-8.82-11.72-15.77-20.4-20.83-8.68-5.06-19.1-7.59-31.25-7.59-13.31,0-24.38,2.75-33.2,8.25-8.83,5.5-15.62,12.66-20.4,21.48-4.77,8.83-7.59,18.45-8.46,28.86Zm41.23-125.86L1028.13,0h48.17l-49.48,65.53h-39.49Z"/>
    </g>
  </g>
</svg>