<?xml version="1.0" encoding="UTF-8"?>
<svg id="Layer_2" data-name="Layer 2" xmlns="http://www.w3.org/2000/svg" viewBox="0 0 1424.26 278.24">
  <defs>
    <style>
      .cls-1 {
        fill: #88a94f;
        stroke-width: 0px;
      }
    </style>
  </defs>
  <g id="Layer_1-2" data-name="Layer 1">
    <g>
      <path class="cls-1" d="m0,1.61h57.13l66.23,183.93L189.71,1.61h57.22l-99.15,276.63h-49.01L0,1.61Z"/>
      <path class="cls-1" d="m279.5,1.61h171.24v54.78h-111.27v55.83h111.27v53.94h-111.27v57.31h111.27v54.78h-171.24V1.61Z"/>
      <path class="cls-1" d="m927.11,1.61h171.24v54.78h-111.27v55.83h111.27v53.94h-111.27v57.31h111.27v54.78h-171.24V1.61Z"/>
      <path class="cls-1" d="m496.35,1.61h91.65c27.86,0,49.89,7.3,66.09,21.9,16.19,14.6,24.29,34.33,24.29,59.17,0,14.18-3.72,28.92-11.15,44.22-7.43,15.3-21.12,27.3-41.08,36.01l83.62,115.32h-68.91l-77.77-107.03h-6.78v107.03h-59.97V1.61Zm60.4,47.98v72.47h12.97c31.33,0,47-12.78,47-38.36,0-10.45-4.08-18.75-12.23-24.9-8.15-6.14-19.46-9.22-33.92-9.22h-13.82Z"/>
      <path class="cls-1" d="m709.78,1.61h187.12v58.78h-63.79v217.85h-59.97V60.39h-63.36V1.61Z"/>
      <path class="cls-1" d="m1138.01,0h59.97v278.24h-59.97V0Z"/>
      <path class="cls-1" d="m1254.92,0h59.55v218.27h109.79v59.97h-169.34V0Z"/>
    </g>
  </g>
</svg>