<?xml version="1.0" encoding="UTF-8"?>
<svg id="Layer_2" data-name="Layer 2" xmlns="http://www.w3.org/2000/svg" xmlns:xlink="http://www.w3.org/1999/xlink" viewBox="0 0 803 1074.67">
  <defs>
    <style>
      .cls-1 {
        fill: #e3a72f;
      }

      .cls-2 {
        fill: #d54b1a;
      }

      .cls-3 {
        fill: #058789;
      }

      .cls-4 {
        clip-path: url(#clippath-1);
      }

      .cls-5 {
        clip-path: url(#clippath);
      }

      .cls-6 {
        fill: none;
      }

      .cls-7 {
        fill: #a25752;
      }
    </style>
    <clipPath id="clippath">
      <rect class="cls-6" width="620.46" height="1074.67"/>
    </clipPath>
    <clipPath id="clippath-1">
      <rect class="cls-6" x="183.13" width="619.88" height="1074.67"/>
    </clipPath>
  </defs>
  <g id="Layer_1-2" data-name="Layer 1">
    <g class="cls-5">
      <path class="cls-3" d="M619.86,1.12V234.93c0,49.27-40.1,89.37-89.35,89.37h-19.55c-98.52,0-178.71,80.21-178.71,178.73v19.44c0,49.38-40.1,89.37-89.36,89.37h-19.43c-98.52,0-178.71,80.21-178.71,178.74v282.96H.07v-282.96c0-123.1,100.19-223.42,223.39-223.42h19.43c24.69,0,44.68-20,44.68-44.69v-19.44c0-123.21,100.3-223.42,223.39-223.42h19.55c24.57,0,44.68-20,44.68-44.69V1.12h44.68Z"/>
    </g>
    <path class="cls-7" d="M680.84,1.12V251.35c0,73.84-60.09,134.05-134.03,134.05h-19.44c-73.94,0-134.03,60.1-134.03,134.05v19.44c0,73.95-60.2,134.06-134.03,134.06h-19.55c-73.83,0-134.03,60.1-134.03,134.05v266.54H61.06v-266.54c0-98.53,80.2-178.74,178.71-178.74h19.55c49.26,0,89.35-40.1,89.35-89.37v-19.44c0-98.64,80.2-178.73,178.71-178.73h19.44c49.26,0,89.35-40.1,89.35-89.37V1.12h44.68Z"/>
    <path class="cls-2" d="M741.94,1.12V267.66c0,98.53-80.19,178.74-178.71,178.74h-19.55c-49.26,0-89.35,40.1-89.35,89.37v19.44c0,98.64-80.2,178.73-178.71,178.73h-19.44c-49.26,0-89.35,40.1-89.35,89.37v250.23h-44.68v-250.23c0-73.84,60.09-134.05,134.03-134.05h19.44c73.94,0,134.03-60.1,134.03-134.05v-19.44c0-73.95,60.2-134.06,134.03-134.06h19.55c73.83,0,134.03-60.1,134.03-134.05V1.12h44.68Z"/>
    <g class="cls-4">
      <path class="cls-1" d="M802.92,1.12V284.08c0,123.11-100.19,223.42-223.39,223.42h-19.43c-24.69,0-44.68,20-44.68,44.69v19.44c0,123.21-100.3,223.42-223.39,223.42h-19.55c-24.57,0-44.68,20-44.68,44.69v233.81h-44.68v-233.81c0-49.27,40.1-89.37,89.35-89.37h19.55c98.52,0,178.71-80.21,178.71-178.73v-19.44c0-49.38,40.1-89.37,89.36-89.37h19.43c98.52,0,178.71-80.21,178.71-178.74V1.12h44.68Z"/>
    </g>
  </g>
</svg>